<?xml version="1.0" encoding="UTF-8" standalone="no"?>
<!-- Created with Inkscape (http://www.inkscape.org/) -->

<svg
   width="200mm"
   height="300mm"
   viewBox="0 0 200 300"
   version="1.1"
   id="svg5"
   inkscape:version="1.2.2 (b0a8486541, 2022-12-01)"
   sodipodi:docname="annotation-front.svg"
   inkscape:export-filename="annotation-front.png"
   inkscape:export-xdpi="300"
   inkscape:export-ydpi="300"
   xmlns:inkscape="http://www.inkscape.org/namespaces/inkscape"
   xmlns:sodipodi="http://sodipodi.sourceforge.net/DTD/sodipodi-0.dtd"
   xmlns="http://www.w3.org/2000/svg"
   xmlns:svg="http://www.w3.org/2000/svg">
  <sodipodi:namedview
     id="namedview7"
     pagecolor="#ffffff"
     bordercolor="#000000"
     borderopacity="0.25"
     inkscape:showpageshadow="2"
     inkscape:pageopacity="0.0"
     inkscape:pagecheckerboard="0"
     inkscape:deskcolor="#d1d1d1"
     inkscape:document-units="mm"
     showgrid="false"
     inkscape:zoom="0.79909512"
     inkscape:cx="225.25479"
     inkscape:cy="106.99602"
     inkscape:window-width="1912"
     inkscape:window-height="1032"
     inkscape:window-x="4"
     inkscape:window-y="44"
     inkscape:window-maximized="1"
     inkscape:current-layer="layer1" />
  <defs
     id="defs2">
    <rect
       x="514.33176"
       y="1225.1358"
       width="103.86748"
       height="202.22036"
       id="rect455" />
    <rect
       x="907.27622"
       y="200.07742"
       width="1258.924"
       height="1125.1716"
       id="rect449" />
  </defs>
  <g
     inkscape:label="Layer 1"
     inkscape:groupmode="layer"
     id="layer1">
    <rect
       style="fill:#000000;stroke:none;stroke-width:1"
       id="rect1033"
       width="200"
       height="300"
       x="4.4957765e-06"
       y="1.877662e-05" />
    <text
       xml:space="preserve"
       transform="scale(0.26458333)"
       id="text453"
       style="font-style:normal;font-variant:normal;font-weight:normal;font-stretch:normal;font-size:160px;font-family:'DIN 1451 Std';-inkscape-font-specification:'DIN 1451 Std';text-align:center;writing-mode:tb-rl;white-space:pre;shape-inside:url(#rect455);display:inline;fill:#ff0000;stroke:#000000;stroke-width:7.55906" />
    <path
       id="path1775"
       style="fill:none;stroke:#990000;stroke-width:2;stroke-linecap:round;stroke-linejoin:bevel;stroke-opacity:1"
       inkscape:transform-center-x="-5.3108561e-06"
       inkscape:transform-center-y="4.8038565"
       d="M 207.28692,-1.6353498 190.64587,27.187791 174.00481,-1.6353518 Z m 0,57.6462908 -16.64105,28.823126 -16.64105,-28.823128 z m -16.64104,-28.823152 16.64104,28.823138 -33.2821,3e-6 z m 16.64103,86.469401 -16.64104,28.82315 -16.64106,-28.82315 z M 190.64587,84.834067 207.28692,113.6572 h -33.2821 z m 16.64106,86.554623 -16.64106,28.82314 -16.64105,-28.82314 z m -16.64105,-28.82314 16.64104,28.82314 h -33.2821 z m 16.64104,86.55464 -16.64104,28.82314 -16.64106,-28.82314 z m -16.64105,-28.82315 16.64105,28.82315 h -33.2821 z m 16.64105,86.46943 -16.64105,28.82314 -16.64105,-28.82315 z m -16.64105,-28.82315 16.64105,28.82315 -33.2821,-1e-5 z" />
    <path
       id="path1828"
       style="fill:none;stroke:#990000;stroke-width:2;stroke-linecap:round;stroke-linejoin:bevel;stroke-opacity:1"
       inkscape:transform-center-x="-5.3108561e-06"
       inkscape:transform-center-y="4.8038565"
       d="M 210.0306,-6.3875408 193.38955,22.4356 176.74849,-6.3875428 Z m 0,57.6462908 -16.64105,28.823117 -16.64105,-28.823119 z m -16.64104,-28.823152 16.64105,28.823138 -33.28211,3e-6 z m 16.64104,86.469392 -16.64105,28.82315 -16.64106,-28.82315 z M 193.38955,80.081867 210.0306,108.905 h -33.2821 z m 16.64106,86.554623 -16.64105,28.82314 -16.64106,-28.82314 z m -16.64105,-28.82314 16.64104,28.82314 h -33.2821 z m 16.64105,86.55464 -16.64105,28.82314 -16.64106,-28.82314 z m -16.64105,-28.82315 16.64105,28.82315 H 176.7485 Z m 16.64104,86.46943 -16.64104,28.82314 -16.64106,-28.82315 z m -16.64105,-28.82315 16.64105,28.82315 -33.2821,-1e-5 z" />
  </g>
  <g
     inkscape:groupmode="layer"
     id="layer2"
     inkscape:label="Witch"
     style="display:inline" />
  <g
     inkscape:groupmode="layer"
     id="layer3"
     inkscape:label="Text"
     style="display:inline">
    <text
       xml:space="preserve"
       style="font-size:34.2993px;line-height:0.75;font-family:Atk;-inkscape-font-specification:Atk;text-align:center;text-anchor:middle;fill:#c90000;fill-opacity:1;stroke:none;stroke-width:1.51915;stroke-dasharray:none;stroke-opacity:1"
       x="170.58632"
       y="42.793396"
       id="text968"
       transform="scale(0.88881992,1.1250873)"><tspan
         sodipodi:role="line"
         style="font-style:normal;font-variant:normal;font-weight:normal;font-stretch:normal;font-family:'Times New Roman';-inkscape-font-specification:'Times New Roman, ';text-align:start;text-anchor:start;fill:#c90000;fill-opacity:1;stroke:none;stroke-width:1.51915;stroke-dasharray:none;stroke-opacity:1"
         x="170.58632"
         y="42.793396"
         id="tspan966" /></text>
    <text
       xml:space="preserve"
       style="font-style:normal;font-variant:normal;font-weight:normal;font-stretch:normal;font-size:18.5025px;font-family:'DIN 1451 Std';-inkscape-font-specification:'DIN 1451 Std';text-align:center;writing-mode:tb-rl;text-anchor:middle;fill:#ff0000;stroke:#000000;stroke-width:0.874135"
       x="99.417168"
       y="123.75153"
       id="text461"><tspan
         sodipodi:role="line"
         id="tspan459"
         style="writing-mode:lr-tb;fill:#ffffff;fill-opacity:1;stroke:none;stroke-width:0.874135"
         x="99.417168"
         y="123.75153">Kapitel 4</tspan></text>
  </g>
  <g
     inkscape:groupmode="layer"
     id="layer4"
     inkscape:label="Text 1"
     style="display:inline">
    <path
       id="path1324"
       style="font-size:35.9777px;font-family:'DIN 1451 Std';-inkscape-font-specification:'DIN 1451 Std';text-align:center;writing-mode:lr-tb;text-anchor:middle;fill:#1dff00;stroke:none;stroke-width:1.69973"
       d="M 27.509432 137.79521 L 30.080334 149.10511 L 31.138668 149.10511 L 28.068571 135.59792 L 28.009143 135.59792 L 27.509432 137.79521 z " />
    <path
       id="path1470"
       style="font-size:35.9777px;font-family:'DIN 1451 Std';-inkscape-font-specification:'DIN 1451 Std';text-align:center;writing-mode:lr-tb;text-anchor:middle;fill:#1dff00;stroke:none;stroke-width:1.69973"
       d="M 33.701819 160.17989 L 32.062642 153.27437 L 31.004309 153.27437 L 32.643486 160.17989 L 33.701819 160.17989 z " />
    <path
       d="m 24.939301,149.10495 3.069795,-13.50689 h 0.05961 l 3.069794,13.50689 z m 8.762327,11.07477 h 3.397637 l -7.719193,-30.92251 h -2.682345 l -7.719192,30.92251 h 3.397637 l 1.63921,-6.90546 h 8.047035 z"
       style="font-size:35.9777px;font-family:'DIN 1451 Std';-inkscape-font-specification:'DIN 1451 Std';text-align:center;writing-mode:lr-tb;text-anchor:middle;fill:#f700ff;stroke:none;stroke-width:1.69973"
       id="path1345" />
    <path
       id="path1468"
       style="font-size:35.9777px;font-family:'DIN 1451 Std';-inkscape-font-specification:'DIN 1451 Std';text-align:center;writing-mode:lr-tb;text-anchor:middle;fill:#ffffff;stroke:none;stroke-width:1.69973;fill-opacity:1"
       d="M 26.697595 129.25723 L 18.978687 160.17989 L 21.318079 160.17989 L 22.957255 153.27437 L 24.015588 153.27437 L 31.004309 153.27437 L 32.062642 153.27437 L 33.701819 160.17989 L 36.040694 160.17989 L 28.321785 129.25723 L 26.697595 129.25723 z M 26.95081 135.59792 L 27.010238 135.59792 L 27.509432 137.79521 L 28.009143 135.59792 L 28.068571 135.59792 L 31.138668 149.10511 L 30.080334 149.10511 L 24.939046 149.10511 L 23.880713 149.10511 L 26.95081 135.59792 z " />
    <path
       id="path1466"
       style="font-size:35.9777px;font-family:'DIN 1451 Std';-inkscape-font-specification:'DIN 1451 Std';text-align:center;writing-mode:lr-tb;text-anchor:middle;fill:#1dff00;stroke:none;stroke-width:1.69973"
       d="M 25.639262 129.25723 L 17.920353 160.17989 L 18.978687 160.17989 L 26.697595 129.25723 L 25.639262 129.25723 z " />
    <path
       id="path1326"
       style="font-size:35.9777px;font-family:'DIN 1451 Std';-inkscape-font-specification:'DIN 1451 Std';text-align:center;writing-mode:lr-tb;text-anchor:middle;fill:#1dff00;stroke:none;stroke-width:1.69973"
       d="M 52.239705 160.17989 L 42.642875 138.20397 L 42.582931 138.20397 L 42.582931 140.49013 L 51.181372 160.17989 L 52.239705 160.17989 z " />
    <path
       id="path1461"
       style="font-size:35.9777px;font-family:'DIN 1451 Std';-inkscape-font-specification:'DIN 1451 Std';text-align:center;writing-mode:lr-tb;text-anchor:middle;fill:#1dff00;stroke:none;stroke-width:1.69973"
       d="M 51.002572 148.94698 L 52.00096 151.23315 L 52.060905 151.23315 L 52.060905 129.25723 L 51.002572 129.25723 L 51.002572 148.94698 z " />
    <path
       d="m 39.364375,160.17972 h 3.218813 v -21.97583 h 0.05961 l 9.596834,21.97583 h 3.039987 v -30.92251 h -3.218813 v 21.97582 h -0.05961 l -9.59683,-21.97582 h -3.039991 z"
       style="font-size:35.9777px;font-family:'DIN 1451 Std';-inkscape-font-specification:'DIN 1451 Std';text-align:center;writing-mode:lr-tb;text-anchor:middle;fill:#f700ff;stroke:none;stroke-width:1.69973"
       id="path1347" />
    <path
       id="path1459"
       style="font-size:35.9777px;font-family:'DIN 1451 Std';-inkscape-font-specification:'DIN 1451 Std';text-align:center;writing-mode:lr-tb;text-anchor:middle;fill:#ffffff;stroke:none;stroke-width:1.69973;fill-opacity:1"
       d="M 39.364522 129.25723 L 39.364522 160.17989 L 41.524597 160.17989 L 41.524597 138.20397 L 41.584542 138.20397 L 42.582931 140.49013 L 42.582931 138.20397 L 42.642875 138.20397 L 52.239705 160.17989 L 54.221497 160.17989 L 54.221497 129.25723 L 52.060905 129.25723 L 52.060905 151.23315 L 52.00096 151.23315 L 51.002572 148.94698 L 51.002572 151.23315 L 50.942627 151.23315 L 41.345797 129.25723 L 39.364522 129.25723 z " />
    <path
       id="path1457"
       style="font-size:35.9777px;font-family:'DIN 1451 Std';-inkscape-font-specification:'DIN 1451 Std';text-align:center;writing-mode:lr-tb;text-anchor:middle;fill:#1dff00;stroke:none;stroke-width:1.69973"
       d="M 38.306189 129.25723 L 38.306189 160.17989 L 39.364522 160.17989 L 39.364522 129.25723 L 38.306189 129.25723 z " />
    <path
       id="path1328"
       style="font-size:35.9777px;font-family:'DIN 1451 Std';-inkscape-font-specification:'DIN 1451 Std';text-align:center;writing-mode:lr-tb;text-anchor:middle;fill:#1dff00;stroke:none;stroke-width:1.69973"
       d="M 72.625541 160.17989 L 63.028711 138.20397 L 62.968766 138.20397 L 62.968766 140.49013 L 71.567208 160.17989 L 72.625541 160.17989 z " />
    <path
       id="path1452"
       style="font-size:35.9777px;font-family:'DIN 1451 Std';-inkscape-font-specification:'DIN 1451 Std';text-align:center;writing-mode:lr-tb;text-anchor:middle;fill:#1dff00;stroke:none;stroke-width:1.69973"
       d="M 71.388407 148.94698 L 72.386796 151.23315 L 72.446741 151.23315 L 72.446741 129.25723 L 71.388407 129.25723 L 71.388407 148.94698 z " />
    <path
       d="m 59.750199,160.17972 h 3.218814 v -21.97583 h 0.0596 l 9.596834,21.97583 h 3.039992 v -30.92251 h -3.218815 v 21.97582 h -0.05961 L 62.790181,129.25721 H 59.75019 Z"
       style="font-size:35.9777px;font-family:'DIN 1451 Std';-inkscape-font-specification:'DIN 1451 Std';text-align:center;writing-mode:lr-tb;text-anchor:middle;fill:#f700ff;stroke:none;stroke-width:1.69973"
       id="path1349" />
    <path
       id="path1450"
       style="font-size:35.9777px;font-family:'DIN 1451 Std';-inkscape-font-specification:'DIN 1451 Std';text-align:center;writing-mode:lr-tb;text-anchor:middle;fill:#ffffff;stroke:none;stroke-width:1.69973;fill-opacity:1"
       d="M 59.750358 129.25723 L 59.750358 160.17989 L 61.910433 160.17989 L 61.910433 138.20397 L 61.970378 138.20397 L 62.968766 140.49013 L 62.968766 138.20397 L 63.028711 138.20397 L 72.625541 160.17989 L 74.607332 160.17989 L 74.607332 129.25723 L 72.446741 129.25723 L 72.446741 151.23315 L 72.386796 151.23315 L 71.388407 148.94698 L 71.388407 151.23315 L 71.328463 151.23315 L 61.731632 129.25723 L 59.750358 129.25723 z " />
    <path
       id="path1448"
       style="font-size:35.9777px;font-family:'DIN 1451 Std';-inkscape-font-specification:'DIN 1451 Std';text-align:center;writing-mode:lr-tb;text-anchor:middle;fill:#1dff00;stroke:none;stroke-width:1.69973"
       d="M 58.692025 129.25723 L 58.692025 160.17989 L 59.750358 160.17989 L 59.750358 129.25723 L 58.692025 129.25723 z " />
    <path
       id="path1330"
       style="font-size:35.9777px;font-family:'DIN 1451 Std';-inkscape-font-specification:'DIN 1451 Std';text-align:center;writing-mode:lr-tb;text-anchor:middle;fill:#1dff00;stroke:none;stroke-width:1.69973"
       d="M 86.461906 155.70574 C 86.499244 155.712 86.53664 155.71785 86.574561 155.72279 C 86.619607 155.72866 86.66512 155.73382 86.710986 155.73778 C 86.756853 155.74175 86.802795 155.74456 86.849479 155.74657 C 86.896163 155.74858 86.943573 155.74967 86.991073 155.74967 C 87.038572 155.74967 87.085465 155.74858 87.132149 155.74657 C 87.178833 155.74456 87.225293 155.74175 87.271159 155.73778 C 87.317025 155.73382 87.362538 155.72866 87.407585 155.72279 C 87.452631 155.71693 87.497201 155.71036 87.541427 155.70264 C 87.585652 155.69492 87.629282 155.68632 87.672685 155.6768 C 87.716087 155.66729 87.759298 155.65706 87.801876 155.6458 C 87.844453 155.63454 87.886216 155.62206 87.927966 155.60911 C 87.969717 155.59615 88.011068 155.58236 88.05199 155.56777 C 88.092912 155.55318 88.133854 155.53795 88.173946 155.52177 C 88.214038 155.5056 88.253543 155.48884 88.292802 155.47113 C 88.332061 155.45342 88.370649 155.43502 88.409074 155.41584 C 88.447499 155.39665 88.485689 155.3765 88.523279 155.35589 C 88.560868 155.33528 88.598148 155.3138 88.6349 155.29181 C 88.671652 155.26983 88.708025 155.24742 88.743937 155.22412 C 88.815762 155.17751 88.885805 155.12841 88.95426 155.07684 C 89.022716 155.02527 89.089693 154.9712 89.154765 154.91509 C 89.219837 154.85898 89.282743 154.80065 89.344417 154.74043 C 89.406092 154.6802 89.466506 154.61779 89.524768 154.55387 C 89.58303 154.48996 89.639432 154.42468 89.694267 154.3575 C 89.749101 154.29032 89.802037 154.22134 89.85343 154.15131 C 89.904823 154.08129 89.954839 154.00981 90.002775 153.93737 C 90.050711 153.86493 90.096802 153.79167 90.141268 153.71723 C 90.185734 153.6428 90.228445 153.56741 90.269425 153.49141 C 90.321582 153.39369 90.371183 153.29891 90.41877 153.20512 C 90.466357 153.11132 90.512004 153.01843 90.555196 152.92555 C 90.598388 152.83267 90.639214 152.73941 90.678186 152.64443 C 90.717158 152.54945 90.753847 152.45307 90.788774 152.35297 C 90.806237 152.30293 90.823449 152.2519 90.839933 152.20001 C 90.856418 152.14812 90.872465 152.09496 90.887992 152.04085 C 90.90352 151.98674 90.918358 151.93167 90.932951 151.87497 C 90.947543 151.81826 90.961646 151.75998 90.975326 151.7003 C 90.989005 151.64063 91.002328 151.57936 91.015116 151.51633 C 91.027904 151.45331 91.040405 151.38878 91.052323 151.32203 C 91.076161 151.18854 91.097979 151.04687 91.118469 150.89622 C 91.138959 150.74557 91.157996 150.58592 91.175313 150.41511 C 91.192631 150.24429 91.208536 150.06237 91.222856 149.86837 C 91.237175 149.67438 91.250116 149.46844 91.261613 149.24825 C 91.273109 149.02807 91.283254 148.79381 91.292102 148.54442 C 91.30095 148.29504 91.308466 148.0302 91.31484 147.7486 C 91.321214 147.46701 91.326268 147.16884 91.330343 146.85202 C 91.334417 146.5352 91.337178 146.1999 91.339128 145.84484 C 91.341078 145.48979 91.342228 145.1146 91.342228 144.7183 C 91.342228 144.32199 91.341078 143.94733 91.339128 143.59227 C 91.337178 143.23721 91.334417 142.90192 91.330343 142.5851 C 91.326268 142.26827 91.321214 141.96959 91.31484 141.68799 C 91.308466 141.40639 91.30095 141.14208 91.292102 140.89269 C 91.283254 140.64331 91.273109 140.40904 91.261613 140.18886 C 91.250116 139.96867 91.237175 139.76222 91.222856 139.56823 C 91.208536 139.37423 91.192631 139.19282 91.175313 139.02201 C 91.157996 138.85119 91.138959 138.69103 91.118469 138.54038 C 91.097979 138.38973 91.076161 138.24858 91.052323 138.11508 C 91.040405 138.04834 91.027904 137.98329 91.015116 137.92026 C 91.002328 137.85724 90.989005 137.79597 90.975326 137.7363 C 90.961646 137.67662 90.947543 137.61885 90.932951 137.56215 C 90.918358 137.50544 90.90352 137.44986 90.887992 137.39575 C 90.872465 137.34164 90.856418 137.28899 90.839933 137.2371 C 90.823449 137.18521 90.806237 137.13419 90.788774 137.08414 C 90.753847 136.98405 90.717158 136.88715 90.678186 136.79217 C 90.639214 136.69718 90.598388 136.60393 90.555196 136.51105 C 90.512004 136.41816 90.466357 136.32579 90.41877 136.23199 C 90.371183 136.1382 90.321582 136.04343 90.269425 135.94571 C 90.228445 135.8697 90.185734 135.79431 90.141268 135.71988 C 90.096802 135.64545 90.050711 135.57166 90.002775 135.49922 C 89.954839 135.42678 89.904823 135.35531 89.85343 135.28528 C 89.802037 135.21526 89.749101 135.14679 89.694267 135.07961 C 89.639432 135.01243 89.58303 134.94664 89.524768 134.88272 C 89.466506 134.81881 89.406092 134.75691 89.344417 134.69669 C 89.282743 134.63646 89.219837 134.57813 89.154765 134.52202 C 89.089693 134.46591 89.022716 134.41185 88.95426 134.36027 C 88.885805 134.3087 88.815762 134.25961 88.743937 134.213 C 88.708025 134.18969 88.671652 134.16677 88.6349 134.14478 C 88.598148 134.1228 88.560868 134.10183 88.523279 134.08122 C 88.485689 134.06061 88.447499 134.04046 88.409074 134.02128 C 88.370649 134.00209 88.332061 133.98369 88.292802 133.96598 C 88.253543 133.94828 88.214038 133.93152 88.173946 133.91534 C 88.133854 133.89917 88.092912 133.88342 88.05199 133.86883 C 88.011068 133.85424 87.969717 133.84044 87.927966 133.82749 C 87.886216 133.81454 87.844453 133.80258 87.801876 133.79132 C 87.759298 133.78006 87.716087 133.76983 87.672685 133.76031 C 87.629282 133.75079 87.585652 133.74219 87.541427 133.73447 C 87.497201 133.72675 87.452631 133.71967 87.407585 133.7138 C 87.362538 133.70793 87.317025 133.7033 87.271159 133.69933 C 87.225293 133.69537 87.178833 133.69204 87.132149 133.69003 C 87.085465 133.68802 87.038572 133.68693 86.991073 133.68693 C 86.943573 133.68693 86.896163 133.68802 86.849479 133.69003 C 86.802795 133.69204 86.756853 133.69537 86.710986 133.69933 C 86.66512 133.7033 86.619607 133.70793 86.574561 133.7138 C 86.536636 133.71874 86.499248 133.72512 86.461906 133.73137 C 87.71087 133.94059 88.634129 134.87566 89.211092 135.94571 C 90.045594 137.50921 90.283895 138.37744 90.283895 144.7183 C 90.283895 151.05913 90.045594 151.92792 89.211092 153.49141 C 88.634127 154.56147 87.710877 155.49653 86.461906 155.70574 z " />
    <path
       d="m 79.420724,144.71847 c 0,7.4266 0.238431,8.33865 0.923919,10.16273 1.013331,2.69269 3.308227,5.5591 6.646254,5.5591 3.338028,0 5.632929,-2.86641 6.646258,-5.5591 0.685482,-1.82408 0.923919,-2.73613 0.923919,-10.16273 0,-7.42662 -0.238437,-8.33866 -0.923919,-10.16274 -1.013329,-2.69269 -3.30823,-5.5591 -6.646258,-5.5591 -3.338027,0 -5.632923,2.86641 -6.646254,5.5591 -0.685488,1.82408 -0.923919,2.73612 -0.923919,10.16274 z m 3.218815,0 c 0,-6.34086 0.238432,-7.20947 1.072934,-8.77297 0.655685,-1.21604 1.758431,-2.25838 3.278424,-2.25838 1.519994,0 2.62274,1.04234 3.278424,2.25838 0.834503,1.5635 1.072933,2.43211 1.072933,8.77297 0,6.34084 -0.23843,7.20946 -1.072933,8.77295 -0.655684,1.21606 -1.75843,2.25838 -3.278424,2.25838 -1.519993,0 -2.622739,-1.04232 -3.278424,-2.25838 -0.834502,-1.56349 -1.072934,-2.43211 -1.072934,-8.77295 z"
       style="font-size:35.9777px;font-family:'DIN 1451 Std';-inkscape-font-specification:'DIN 1451 Std';text-align:center;writing-mode:lr-tb;text-anchor:middle;fill:#f700ff;stroke:none;stroke-width:1.69973"
       id="path1351" />
    <path
       id="path1441"
       style="font-size:35.9777px;font-family:'DIN 1451 Std';-inkscape-font-specification:'DIN 1451 Std';text-align:center;writing-mode:lr-tb;text-anchor:middle;fill:#ffffff;stroke:none;stroke-width:1.69973;fill-opacity:1"
       d="M 86.461906 129.02262 C 86.433797 129.02523 86.405105 129.02631 86.377157 129.02933 C 86.276947 129.04016 86.178153 129.05368 86.080017 129.06964 C 85.981881 129.0856 85.884609 129.10403 85.788562 129.12493 C 85.692515 129.14584 85.597253 129.16954 85.503308 129.19521 C 85.409364 129.22089 85.316599 129.24868 85.224772 129.27893 C 85.132945 129.30918 85.042132 129.34144 84.952437 129.37608 C 84.862742 129.41073 84.774369 129.44782 84.68682 129.48667 C 84.599272 129.52552 84.512792 129.56627 84.427405 129.60914 C 84.342017 129.65201 84.257402 129.6968 84.17419 129.7435 C 84.090978 129.79021 84.009232 129.83887 83.92821 129.88923 C 83.847189 129.93959 83.767249 129.99199 83.688432 130.04581 C 83.609615 130.09963 83.531969 130.15511 83.455371 130.21221 C 83.378773 130.26931 83.302876 130.32771 83.228512 130.38791 C 83.154148 130.4481 83.081002 130.50981 83.008887 130.57291 C 82.936771 130.63601 82.865832 130.70035 82.79598 130.76618 C 82.726127 130.832 82.657366 130.89936 82.589791 130.96772 C 82.522216 131.03608 82.455603 131.10578 82.39032 131.17649 C 82.325037 131.2472 82.26106 131.3191 82.198083 131.39198 C 82.135107 131.46486 82.073221 131.53881 82.012565 131.61367 C 81.95191 131.68853 81.892601 131.7644 81.834281 131.84105 C 81.775962 131.9177 81.718685 131.99481 81.662716 132.07308 C 81.606746 132.15134 81.551989 132.23058 81.498385 132.31027 C 81.44478 132.38996 81.392514 132.47016 81.341288 132.55108 C 81.290063 132.63201 81.239741 132.71354 81.19091 132.79551 C 81.142078 132.87749 81.094706 132.9602 81.048283 133.04304 C 81.00186 133.12588 80.956374 133.20912 80.912374 133.29264 C 80.868374 133.37616 80.825779 133.45977 80.784216 133.54379 C 80.742654 133.62781 80.702404 133.71216 80.663293 133.79648 C 80.624183 133.88081 80.586249 133.96524 80.549605 134.0497 C 80.512962 134.13415 80.477314 134.21852 80.443152 134.30291 C 80.40899 134.38731 80.376116 134.47146 80.34445 134.55561 C 80.301607 134.66962 80.260861 134.78023 80.22146 134.88892 C 80.182059 134.99762 80.14435 135.10438 80.108289 135.21139 C 80.072227 135.31839 80.037759 135.42542 80.004936 135.53436 C 79.972112 135.64331 79.940572 135.7542 79.910885 135.86871 C 79.881197 135.98322 79.853305 136.10157 79.826652 136.22528 C 79.799999 136.34898 79.774925 136.47839 79.751204 136.61492 C 79.727484 136.75144 79.704915 136.89499 79.684025 137.04797 C 79.663135 137.20094 79.643792 137.36326 79.625631 137.53631 C 79.607469 137.70935 79.590523 137.89302 79.574988 138.08976 C 79.559453 138.2865 79.545106 138.49615 79.532096 138.72021 C 79.519086 138.94428 79.507543 139.18298 79.496956 139.438 C 79.486369 139.69302 79.4768 139.96438 79.468534 140.25397 C 79.460268 140.54356 79.453394 140.85118 79.447347 141.17898 C 79.4413 141.50678 79.43629 141.85477 79.432361 142.22439 C 79.428432 142.59402 79.42549 142.98547 79.423576 143.40055 C 79.421662 143.81563 79.420475 144.25414 79.420475 144.7183 C 79.420475 145.18246 79.421662 145.62148 79.423576 146.03656 C 79.42549 146.45164 79.428432 146.84309 79.432361 147.21272 C 79.43629 147.58234 79.4413 147.92982 79.447347 148.25762 C 79.453394 148.58541 79.460268 148.89355 79.468534 149.18314 C 79.4768 149.47273 79.486369 149.7441 79.496956 149.99911 C 79.507543 150.25413 79.519086 150.49283 79.532096 150.7169 C 79.545106 150.94096 79.559453 151.15009 79.574988 151.34683 C 79.590523 151.54358 79.607469 151.72776 79.625631 151.90081 C 79.643792 152.07385 79.663135 152.23618 79.684025 152.38915 C 79.704915 152.54212 79.727484 152.68567 79.751204 152.8222 C 79.774925 152.95872 79.799999 153.08813 79.826652 153.21184 C 79.853305 153.33554 79.881197 153.45337 79.910885 153.56789 C 79.940572 153.6824 79.972112 153.79329 80.004936 153.90223 C 80.037759 154.01118 80.072227 154.1182 80.108289 154.22521 C 80.14435 154.33222 80.182059 154.4395 80.22146 154.54819 C 80.260861 154.65688 80.301607 154.76698 80.34445 154.88099 C 80.376116 154.96513 80.40899 155.04981 80.443152 155.1342 C 80.477314 155.21859 80.512962 155.30296 80.549605 155.38741 C 80.586249 155.47187 80.624183 155.5563 80.663293 155.64063 C 80.702404 155.72496 80.742654 155.80931 80.784216 155.89333 C 80.825779 155.97735 80.868374 156.06095 80.912374 156.14447 C 80.956374 156.228 81.00186 156.31123 81.048283 156.39407 C 81.094706 156.47691 81.142078 156.55963 81.19091 156.6416 C 81.239741 156.72358 81.290063 156.80511 81.341288 156.88603 C 81.392514 156.96695 81.44478 157.04716 81.498385 157.12684 C 81.551989 157.20653 81.606746 157.28526 81.662716 157.36352 C 81.718685 157.44178 81.775962 157.51941 81.834281 157.59607 C 81.892601 157.67272 81.95191 157.74858 82.012565 157.82344 C 82.073221 157.8983 82.135107 157.97226 82.198083 158.04513 C 82.26106 158.11801 82.325037 158.18991 82.39032 158.26062 C 82.455603 158.33134 82.522216 158.40104 82.589791 158.4694 C 82.657366 158.53776 82.726127 158.60459 82.79598 158.67042 C 82.865832 158.73624 82.936771 158.80059 83.008887 158.86369 C 83.081002 158.92679 83.154148 158.9885 83.228512 159.04869 C 83.302876 159.10888 83.378773 159.16781 83.455371 159.22491 C 83.531969 159.28201 83.609615 159.33748 83.688432 159.3913 C 83.767249 159.44513 83.847189 159.49753 83.92821 159.54788 C 84.009232 159.59824 84.090978 159.64639 84.17419 159.69309 C 84.257402 159.7398 84.342017 159.7851 84.427405 159.82797 C 84.512792 159.87084 84.599272 159.91159 84.68682 159.95044 C 84.774369 159.98929 84.862742 160.02587 84.952437 160.06051 C 85.042132 160.09516 85.132945 160.12793 85.224772 160.15818 C 85.316599 160.18843 85.409364 160.21623 85.503308 160.2419 C 85.597253 160.26757 85.692515 160.29075 85.788562 160.31166 C 85.884609 160.33257 85.981881 160.35151 86.080017 160.36747 C 86.178153 160.38343 86.276947 160.39644 86.377157 160.40726 C 86.405101 160.41028 86.433801 160.41137 86.461906 160.41398 C 89.513287 160.13029 91.620066 157.4287 92.578845 154.88099 C 93.264327 153.05691 93.50282 152.14489 93.50282 144.7183 C 93.50282 137.29169 93.264327 136.37969 92.578845 134.55561 C 91.620064 132.00789 89.513294 129.3063 86.461906 129.02262 z M 85.932739 133.68693 C 86.115228 133.68693 86.291497 133.70283 86.461906 133.73137 C 86.499248 133.72512 86.536636 133.71874 86.574561 133.7138 C 86.619607 133.70793 86.66512 133.7033 86.710986 133.69933 C 86.756853 133.69537 86.802795 133.69204 86.849479 133.69003 C 86.896163 133.68802 86.943573 133.68693 86.991073 133.68693 C 87.038572 133.68693 87.085465 133.68802 87.132149 133.69003 C 87.178833 133.69204 87.225293 133.69537 87.271159 133.69933 C 87.317025 133.7033 87.362538 133.70793 87.407585 133.7138 C 87.452631 133.71967 87.497201 133.72675 87.541427 133.73447 C 87.585652 133.74219 87.629282 133.75079 87.672685 133.76031 C 87.716087 133.76983 87.759298 133.78006 87.801876 133.79132 C 87.844453 133.80258 87.886216 133.81454 87.927966 133.82749 C 87.969717 133.84044 88.011068 133.85424 88.05199 133.86883 C 88.092912 133.88342 88.133854 133.89917 88.173946 133.91534 C 88.214038 133.93152 88.253543 133.94828 88.292802 133.96598 C 88.332061 133.98369 88.370649 134.00209 88.409074 134.02128 C 88.447499 134.04046 88.485689 134.06061 88.523279 134.08122 C 88.560868 134.10183 88.598148 134.1228 88.6349 134.14478 C 88.671652 134.16677 88.708025 134.18969 88.743937 134.213 C 88.815762 134.25961 88.885805 134.3087 88.95426 134.36027 C 89.022716 134.41185 89.089693 134.46591 89.154765 134.52202 C 89.219837 134.57813 89.282743 134.63646 89.344417 134.69669 C 89.406092 134.75691 89.466506 134.81881 89.524768 134.88272 C 89.58303 134.94664 89.639432 135.01243 89.694267 135.07961 C 89.749101 135.14679 89.802037 135.21526 89.85343 135.28528 C 89.904823 135.35531 89.954839 135.42678 90.002775 135.49922 C 90.050711 135.57166 90.096802 135.64545 90.141268 135.71988 C 90.185734 135.79431 90.228445 135.8697 90.269425 135.94571 C 90.321582 136.04343 90.371183 136.1382 90.41877 136.23199 C 90.466357 136.32579 90.512004 136.41816 90.555196 136.51105 C 90.598388 136.60393 90.639214 136.69718 90.678186 136.79217 C 90.717158 136.88715 90.753847 136.98405 90.788774 137.08414 C 90.806237 137.13419 90.823449 137.18521 90.839933 137.2371 C 90.856418 137.28899 90.872465 137.34164 90.887992 137.39575 C 90.90352 137.44986 90.918358 137.50544 90.932951 137.56215 C 90.947543 137.61885 90.961646 137.67662 90.975326 137.7363 C 90.989005 137.79597 91.002328 137.85724 91.015116 137.92026 C 91.027904 137.98329 91.040405 138.04834 91.052323 138.11508 C 91.076161 138.24858 91.097979 138.38973 91.118469 138.54038 C 91.138959 138.69103 91.157996 138.85119 91.175313 139.02201 C 91.192631 139.19282 91.208536 139.37423 91.222856 139.56823 C 91.237175 139.76222 91.250116 139.96867 91.261613 140.18886 C 91.273109 140.40904 91.283254 140.64331 91.292102 140.89269 C 91.30095 141.14208 91.308466 141.40639 91.31484 141.68799 C 91.321214 141.96959 91.326268 142.26827 91.330343 142.5851 C 91.334417 142.90192 91.337178 143.23721 91.339128 143.59227 C 91.341078 143.94733 91.342228 144.32199 91.342228 144.7183 C 91.342228 145.1146 91.341078 145.48979 91.339128 145.84484 C 91.337178 146.1999 91.334417 146.5352 91.330343 146.85202 C 91.326268 147.16884 91.321214 147.46701 91.31484 147.7486 C 91.308466 148.0302 91.30095 148.29504 91.292102 148.54442 C 91.283254 148.79381 91.273109 149.02807 91.261613 149.24825 C 91.250116 149.46844 91.237175 149.67438 91.222856 149.86837 C 91.208536 150.06237 91.192631 150.24429 91.175313 150.41511 C 91.157996 150.58592 91.138959 150.74557 91.118469 150.89622 C 91.097979 151.04687 91.076161 151.18854 91.052323 151.32203 C 91.040405 151.38878 91.027904 151.45331 91.015116 151.51633 C 91.002328 151.57936 90.989005 151.64063 90.975326 151.7003 C 90.961646 151.75998 90.947543 151.81826 90.932951 151.87497 C 90.918358 151.93167 90.90352 151.98674 90.887992 152.04085 C 90.872465 152.09496 90.856418 152.14812 90.839933 152.20001 C 90.823449 152.2519 90.806237 152.30293 90.788774 152.35297 C 90.753847 152.45307 90.717158 152.54945 90.678186 152.64443 C 90.639214 152.73941 90.598388 152.83267 90.555196 152.92555 C 90.512004 153.01843 90.466357 153.11132 90.41877 153.20512 C 90.371183 153.29891 90.321582 153.39369 90.269425 153.49141 C 90.228445 153.56741 90.185734 153.6428 90.141268 153.71723 C 90.096802 153.79167 90.050711 153.86493 90.002775 153.93737 C 89.954839 154.00981 89.904823 154.08129 89.85343 154.15131 C 89.802037 154.22134 89.749101 154.29032 89.694267 154.3575 C 89.639432 154.42468 89.58303 154.48996 89.524768 154.55387 C 89.466506 154.61779 89.406092 154.6802 89.344417 154.74043 C 89.282743 154.80065 89.219837 154.85898 89.154765 154.91509 C 89.089693 154.9712 89.022716 155.02527 88.95426 155.07684 C 88.885805 155.12841 88.815762 155.17751 88.743937 155.22412 C 88.708025 155.24742 88.671652 155.26983 88.6349 155.29181 C 88.598148 155.3138 88.560868 155.33528 88.523279 155.35589 C 88.485689 155.3765 88.447499 155.39665 88.409074 155.41584 C 88.370649 155.43502 88.332061 155.45342 88.292802 155.47113 C 88.253543 155.48884 88.214038 155.5056 88.173946 155.52177 C 88.133854 155.53795 88.092912 155.55318 88.05199 155.56777 C 88.011068 155.58236 87.969717 155.59615 87.927966 155.60911 C 87.886216 155.62206 87.844453 155.63454 87.801876 155.6458 C 87.759298 155.65706 87.716087 155.66729 87.672685 155.6768 C 87.629282 155.68632 87.585652 155.69492 87.541427 155.70264 C 87.497201 155.71036 87.452631 155.71693 87.407585 155.72279 C 87.362538 155.72866 87.317025 155.73382 87.271159 155.73778 C 87.225293 155.74175 87.178833 155.74456 87.132149 155.74657 C 87.085465 155.74858 87.038572 155.74967 86.991073 155.74967 C 86.943573 155.74967 86.896163 155.74858 86.849479 155.74657 C 86.802795 155.74456 86.756853 155.74175 86.710986 155.73778 C 86.66512 155.73382 86.619607 155.72866 86.574561 155.72279 C 86.53664 155.71785 86.499244 155.712 86.461906 155.70574 C 86.291501 155.73429 86.115224 155.74967 85.932739 155.74967 C 84.412747 155.74967 83.31007 154.70747 82.654386 153.49141 C 81.819881 151.92792 81.581067 151.05913 81.581067 144.7183 C 81.581067 138.37744 81.819881 137.50921 82.654386 135.94571 C 83.31007 134.72967 84.412747 133.68693 85.932739 133.68693 z " />
    <path
       id="path1439"
       style="font-size:35.9777px;font-family:'DIN 1451 Std';-inkscape-font-specification:'DIN 1451 Std';text-align:center;writing-mode:lr-tb;text-anchor:middle;fill:#1dff00;stroke:none;stroke-width:1.69973"
       d="M 85.932739 128.99678 C 82.594712 128.99678 80.299447 131.86292 79.286117 134.55561 C 78.600629 136.37969 78.362142 137.29169 78.362142 144.7183 C 78.362142 152.14489 78.600629 153.05691 79.286117 154.88099 C 80.299447 157.57367 82.594712 160.44034 85.932739 160.44034 C 86.112453 160.44034 86.288276 160.43012 86.461906 160.41398 C 86.433801 160.41137 86.405101 160.41028 86.377157 160.40726 C 86.276947 160.39644 86.178153 160.38343 86.080017 160.36747 C 85.981881 160.35151 85.884609 160.33257 85.788562 160.31166 C 85.692515 160.29075 85.597253 160.26757 85.503308 160.2419 C 85.409364 160.21623 85.316599 160.18843 85.224772 160.15818 C 85.132945 160.12793 85.042132 160.09516 84.952437 160.06051 C 84.862742 160.02587 84.774369 159.98929 84.68682 159.95044 C 84.599272 159.91159 84.512792 159.87084 84.427405 159.82797 C 84.342017 159.7851 84.257402 159.7398 84.17419 159.69309 C 84.090978 159.64639 84.009232 159.59824 83.92821 159.54788 C 83.847189 159.49753 83.767249 159.44513 83.688432 159.3913 C 83.609615 159.33748 83.531969 159.28201 83.455371 159.22491 C 83.378773 159.16781 83.302876 159.10888 83.228512 159.04869 C 83.154148 158.9885 83.081002 158.92679 83.008887 158.86369 C 82.936771 158.80059 82.865832 158.73624 82.79598 158.67042 C 82.726127 158.60459 82.657366 158.53776 82.589791 158.4694 C 82.522216 158.40104 82.455603 158.33134 82.39032 158.26062 C 82.325037 158.18991 82.26106 158.11801 82.198083 158.04513 C 82.135107 157.97226 82.073221 157.8983 82.012565 157.82344 C 81.95191 157.74858 81.892601 157.67272 81.834281 157.59607 C 81.775962 157.51941 81.718685 157.44178 81.662716 157.36352 C 81.606746 157.28526 81.551989 157.20653 81.498385 157.12684 C 81.44478 157.04716 81.392514 156.96695 81.341288 156.88603 C 81.290063 156.80511 81.239741 156.72358 81.19091 156.6416 C 81.142078 156.55963 81.094706 156.47691 81.048283 156.39407 C 81.00186 156.31123 80.956374 156.228 80.912374 156.14447 C 80.868374 156.06095 80.825779 155.97735 80.784216 155.89333 C 80.742654 155.80931 80.702404 155.72496 80.663293 155.64063 C 80.624183 155.5563 80.586249 155.47187 80.549605 155.38741 C 80.512962 155.30296 80.477314 155.21859 80.443152 155.1342 C 80.40899 155.04981 80.376116 154.96513 80.34445 154.88099 C 80.301607 154.76698 80.260861 154.65688 80.22146 154.54819 C 80.182059 154.4395 80.14435 154.33222 80.108289 154.22521 C 80.072227 154.1182 80.037759 154.01118 80.004936 153.90223 C 79.972112 153.79329 79.940572 153.6824 79.910885 153.56789 C 79.881197 153.45337 79.853305 153.33554 79.826652 153.21184 C 79.799999 153.08813 79.774925 152.95872 79.751204 152.8222 C 79.727484 152.68567 79.704915 152.54212 79.684025 152.38915 C 79.663135 152.23618 79.643792 152.07385 79.625631 151.90081 C 79.607469 151.72776 79.590523 151.54358 79.574988 151.34683 C 79.559453 151.15009 79.545106 150.94096 79.532096 150.7169 C 79.519086 150.49283 79.507543 150.25413 79.496956 149.99911 C 79.486369 149.7441 79.4768 149.47273 79.468534 149.18314 C 79.460268 148.89355 79.453394 148.58541 79.447347 148.25762 C 79.4413 147.92982 79.43629 147.58234 79.432361 147.21272 C 79.428432 146.84309 79.42549 146.45164 79.423576 146.03656 C 79.421662 145.62148 79.420475 145.18246 79.420475 144.7183 C 79.420475 144.25414 79.421662 143.81563 79.423576 143.40055 C 79.42549 142.98547 79.428432 142.59402 79.432361 142.22439 C 79.43629 141.85477 79.4413 141.50678 79.447347 141.17898 C 79.453394 140.85118 79.460268 140.54356 79.468534 140.25397 C 79.4768 139.96438 79.486369 139.69302 79.496956 139.438 C 79.507543 139.18298 79.519086 138.94428 79.532096 138.72021 C 79.545106 138.49615 79.559453 138.2865 79.574988 138.08976 C 79.590523 137.89302 79.607469 137.70935 79.625631 137.53631 C 79.643792 137.36326 79.663135 137.20094 79.684025 137.04797 C 79.704915 136.89499 79.727484 136.75144 79.751204 136.61492 C 79.774925 136.47839 79.799999 136.34898 79.826652 136.22528 C 79.853305 136.10157 79.881197 135.98322 79.910885 135.86871 C 79.940572 135.7542 79.972112 135.64331 80.004936 135.53436 C 80.037759 135.42542 80.072227 135.31839 80.108289 135.21139 C 80.14435 135.10438 80.182059 134.99762 80.22146 134.88892 C 80.260861 134.78023 80.301607 134.66962 80.34445 134.55561 C 80.376116 134.47146 80.40899 134.38731 80.443152 134.30291 C 80.477314 134.21852 80.512962 134.13415 80.549605 134.0497 C 80.586249 133.96524 80.624183 133.88081 80.663293 133.79648 C 80.702404 133.71216 80.742654 133.62781 80.784216 133.54379 C 80.825779 133.45977 80.868374 133.37616 80.912374 133.29264 C 80.956374 133.20912 81.00186 133.12588 81.048283 133.04304 C 81.094706 132.9602 81.142078 132.87749 81.19091 132.79551 C 81.239741 132.71354 81.290063 132.63201 81.341288 132.55108 C 81.392514 132.47016 81.44478 132.38996 81.498385 132.31027 C 81.551989 132.23058 81.606746 132.15134 81.662716 132.07308 C 81.718685 131.99481 81.775962 131.9177 81.834281 131.84105 C 81.892601 131.7644 81.95191 131.68853 82.012565 131.61367 C 82.073221 131.53881 82.135107 131.46486 82.198083 131.39198 C 82.26106 131.3191 82.325037 131.2472 82.39032 131.17649 C 82.455603 131.10578 82.522216 131.03608 82.589791 130.96772 C 82.657366 130.89936 82.726127 130.832 82.79598 130.76618 C 82.865832 130.70035 82.936771 130.63601 83.008887 130.57291 C 83.081002 130.50981 83.154148 130.4481 83.228512 130.38791 C 83.302876 130.32771 83.378773 130.26931 83.455371 130.21221 C 83.531969 130.15511 83.609615 130.09963 83.688432 130.04581 C 83.767249 129.99199 83.847189 129.93959 83.92821 129.88923 C 84.009232 129.83887 84.090978 129.79021 84.17419 129.7435 C 84.257402 129.6968 84.342017 129.65201 84.427405 129.60914 C 84.512792 129.56627 84.599272 129.52552 84.68682 129.48667 C 84.774369 129.44782 84.862742 129.41073 84.952437 129.37608 C 85.042132 129.34144 85.132945 129.30918 85.224772 129.27893 C 85.316599 129.24868 85.409364 129.22089 85.503308 129.19521 C 85.597253 129.16954 85.692515 129.14584 85.788562 129.12493 C 85.884609 129.10403 85.981881 129.0856 86.080017 129.06964 C 86.178153 129.05368 86.276947 129.04016 86.377157 129.02933 C 86.405105 129.02631 86.433797 129.02523 86.461906 129.02262 C 86.28828 129.00647 86.112449 128.99678 85.932739 128.99678 z " />
    <path
       id="path1332"
       style="font-size:35.9777px;font-family:'DIN 1451 Std';-inkscape-font-specification:'DIN 1451 Std';text-align:center;writing-mode:lr-tb;text-anchor:middle;fill:#1dff00;stroke:none;stroke-width:1.69973"
       d="M 101.38606 160.17989 L 101.38606 133.42648 L 100.32773 133.42648 L 100.32773 160.17989 L 101.38606 160.17989 z " />
    <path
       d="m 101.38618,160.17972 h 3.21882 v -26.75318 h 5.81174 v -4.16933 H 95.574436 v 4.16933 h 5.811744 z"
       style="font-size:35.9777px;font-family:'DIN 1451 Std';-inkscape-font-specification:'DIN 1451 Std';text-align:center;writing-mode:lr-tb;text-anchor:middle;fill:#f700ff;stroke:none;stroke-width:1.69973"
       id="path1353" />
    <path
       id="path1434"
       style="font-size:35.9777px;font-family:'DIN 1451 Std';-inkscape-font-specification:'DIN 1451 Std';text-align:center;writing-mode:lr-tb;text-anchor:middle;fill:#fdfffd;stroke:none;stroke-width:1.69973;fill-opacity:1"
       d="M 95.574528 129.25723 L 95.574528 133.42648 L 100.32773 133.42648 L 101.38606 133.42648 L 101.38606 160.17989 L 103.54665 160.17989 L 103.54665 133.42648 L 104.60498 133.42648 L 109.35818 133.42648 L 109.35818 129.25723 L 95.574528 129.25723 z " />
    <path
       id="path1432"
       style="font-size:35.9777px;font-family:'DIN 1451 Std';-inkscape-font-specification:'DIN 1451 Std';text-align:center;writing-mode:lr-tb;text-anchor:middle;fill:#1dff00;stroke:none;stroke-width:1.69973"
       d="M 94.516195 129.25723 L 94.516195 133.42648 L 95.574528 133.42648 L 95.574528 129.25723 L 94.516195 129.25723 z " />
    <path
       id="path1334"
       style="font-size:35.9777px;font-family:'DIN 1451 Std';-inkscape-font-specification:'DIN 1451 Std';text-align:center;writing-mode:lr-tb;text-anchor:middle;fill:#1dff00;stroke:none;stroke-width:1.69973"
       d="M 116.80217 137.79572 L 119.37256 149.10511 L 120.43089 149.10511 L 117.36131 135.59792 L 117.30137 135.59792 L 116.80217 137.79572 z " />
    <path
       id="path1427"
       style="font-size:35.9777px;font-family:'DIN 1451 Std';-inkscape-font-specification:'DIN 1451 Std';text-align:center;writing-mode:lr-tb;text-anchor:middle;fill:#1dff00;stroke:none;stroke-width:1.69973"
       d="M 122.99404 160.17989 L 121.35487 153.27437 L 120.29653 153.27437 L 121.93571 160.17989 L 122.99404 160.17989 z " />
    <path
       d="m 114.23165,149.10495 3.06979,-13.50689 h 0.0597 l 3.06979,13.50689 z m 8.76233,11.07477 h 3.39763 l -7.71918,-30.92251 h -2.68236 l -7.71918,30.92251 h 3.39763 l 1.63921,-6.90546 h 8.04704 z"
       style="font-size:35.9777px;font-family:'DIN 1451 Std';-inkscape-font-specification:'DIN 1451 Std';text-align:center;writing-mode:lr-tb;text-anchor:middle;fill:#f700ff;stroke:none;stroke-width:1.69973"
       id="path1355" />
    <path
       id="path1425"
       style="font-size:35.9777px;font-family:'DIN 1451 Std';-inkscape-font-specification:'DIN 1451 Std';text-align:center;writing-mode:lr-tb;text-anchor:middle;fill:#ffffff;stroke:none;stroke-width:1.69973;fill-opacity:1"
       d="M 115.98982 129.25723 L 108.27091 160.17989 L 110.6103 160.17989 L 112.24948 153.27437 L 113.30781 153.27437 L 120.29653 153.27437 L 121.35487 153.27437 L 122.99404 160.17989 L 125.33344 160.17989 L 117.61401 129.25723 L 115.98982 129.25723 z M 116.24303 135.59792 L 116.30246 135.59792 L 116.80217 137.79572 L 117.30137 135.59792 L 117.36131 135.59792 L 120.43089 149.10511 L 119.37256 149.10511 L 114.23179 149.10511 L 113.17345 149.10511 L 116.24303 135.59792 z " />
    <path
       id="path1423"
       style="font-size:35.9777px;font-family:'DIN 1451 Std';-inkscape-font-specification:'DIN 1451 Std';text-align:center;writing-mode:lr-tb;text-anchor:middle;fill:#1dff00;stroke:none;stroke-width:1.69973"
       d="M 114.93149 129.25723 L 107.21258 160.17989 L 108.27091 160.17989 L 115.98982 129.25723 L 114.93149 129.25723 z " />
    <path
       id="path1336"
       style="font-size:35.9777px;font-family:'DIN 1451 Std';-inkscape-font-specification:'DIN 1451 Std';text-align:center;writing-mode:lr-tb;text-anchor:middle;fill:#1dff00;stroke:none;stroke-width:1.69973"
       d="M 130.05769 160.17989 L 130.05769 133.42648 L 128.99936 133.42648 L 128.99936 160.17989 L 130.05769 160.17989 z " />
    <path
       d="m 130.05752,160.17972 h 3.21881 v -26.75318 h 5.81175 v -4.16933 h -14.8423 v 4.16933 h 5.81174 z"
       style="font-size:35.9777px;font-family:'DIN 1451 Std';-inkscape-font-specification:'DIN 1451 Std';text-align:center;writing-mode:lr-tb;text-anchor:middle;fill:#f700ff;stroke:none;stroke-width:1.69973"
       id="path1357" />
    <path
       id="path1418"
       style="font-size:35.9777px;font-family:'DIN 1451 Std';-inkscape-font-specification:'DIN 1451 Std';text-align:center;writing-mode:lr-tb;text-anchor:middle;fill:#ffffff;stroke:none;stroke-width:1.69973;fill-opacity:1"
       d="M 124.24565 129.25723 L 124.24565 133.42648 L 128.99936 133.42648 L 130.05769 133.42648 L 130.05769 160.17989 L 132.21777 160.17989 L 132.21777 133.42648 L 133.2761 133.42648 L 138.02982 133.42648 L 138.02982 129.25723 L 124.24565 129.25723 z " />
    <path
       id="path1416"
       style="font-size:35.9777px;font-family:'DIN 1451 Std';-inkscape-font-specification:'DIN 1451 Std';text-align:center;writing-mode:lr-tb;text-anchor:middle;fill:#1dff00;stroke:none;stroke-width:1.69973"
       d="M 123.18731 129.25723 L 123.18731 133.42648 L 124.24565 133.42648 L 124.24565 129.25723 L 123.18731 129.25723 z " />
    <path
       d="m 141.35318,160.17972 h 3.21881 v -30.92251 h -3.21881 z"
       style="font-size:35.9777px;font-family:'DIN 1451 Std';-inkscape-font-specification:'DIN 1451 Std';text-align:center;writing-mode:lr-tb;text-anchor:middle;fill:#f700ff;stroke:none;stroke-width:1.69973"
       id="path1359" />
    <path
       id="path1338"
       style="font-size:35.9777px;font-family:'DIN 1451 Std';-inkscape-font-specification:'DIN 1451 Std';text-align:center;writing-mode:lr-tb;text-anchor:middle;fill:#ffffff;stroke:none;stroke-width:1.69973;fill-opacity:1"
       d="M 141.35313 129.25723 L 141.35313 160.17989 L 143.51372 160.17989 L 143.51372 129.25723 L 141.35313 129.25723 z " />
    <path
       id="path1411"
       style="font-size:35.9777px;font-family:'DIN 1451 Std';-inkscape-font-specification:'DIN 1451 Std';text-align:center;writing-mode:lr-tb;text-anchor:middle;fill:#1dff00;stroke:none;stroke-width:1.69973"
       d="M 140.2948 129.25723 L 140.2948 160.17989 L 141.35313 160.17989 L 141.35313 129.25723 L 140.2948 129.25723 z " />
    <path
       id="path1340"
       style="font-size:35.9777px;font-family:'DIN 1451 Std';-inkscape-font-specification:'DIN 1451 Std';text-align:center;writing-mode:lr-tb;text-anchor:middle;fill:#1dff00;stroke:none;stroke-width:1.69973"
       d="M 155.36829 155.70574 C 155.40563 155.712 155.44303 155.71785 155.48095 155.72279 C 155.526 155.72866 155.57151 155.73382 155.61737 155.73778 C 155.66324 155.74175 155.7097 155.74456 155.75638 155.74657 C 155.80307 155.74858 155.84996 155.74967 155.89746 155.74967 C 155.94496 155.74967 155.99185 155.74858 156.03854 155.74657 C 156.08522 155.74456 156.13168 155.74175 156.17755 155.73778 C 156.22341 155.73382 156.26893 155.72866 156.31397 155.72279 C 156.35902 155.71693 156.40359 155.71036 156.44781 155.70264 C 156.49204 155.69492 156.53567 155.68632 156.57907 155.6768 C 156.62248 155.66729 156.66569 155.65706 156.70826 155.6458 C 156.75084 155.63454 156.79312 155.62206 156.83487 155.60911 C 156.87662 155.59615 156.91797 155.58236 156.95889 155.56777 C 156.99982 155.55318 157.04024 155.53795 157.08033 155.52177 C 157.12043 155.5056 157.15993 155.48884 157.19919 155.47113 C 157.23845 155.45342 157.27755 155.43502 157.31598 155.41584 C 157.3544 155.39665 157.39208 155.3765 157.42967 155.35589 C 157.46726 155.33528 157.50454 155.3138 157.54129 155.29181 C 157.57804 155.26983 157.61441 155.24742 157.65033 155.22412 C 157.72215 155.17751 157.79219 155.12841 157.86065 155.07684 C 157.9291 155.02527 157.99608 154.9712 158.06115 154.91509 C 158.12623 154.85898 158.18965 154.80065 158.25132 154.74043 C 158.313 154.6802 158.3729 154.61779 158.43116 154.55387 C 158.48942 154.48996 158.54582 154.42468 158.60066 154.3575 C 158.65549 154.29032 158.70843 154.22134 158.75982 154.15131 C 158.81121 154.08129 158.86123 154.00981 158.90916 153.93737 C 158.9571 153.86493 159.00319 153.79167 159.04766 153.71723 C 159.09212 153.6428 159.13483 153.56741 159.17581 153.49141 C 159.22797 153.39369 159.27809 153.29891 159.32568 153.20512 C 159.37326 153.11132 159.41839 153.01843 159.46158 152.92555 C 159.50478 152.83267 159.5456 152.73941 159.58457 152.64443 C 159.62355 152.54945 159.66075 152.45307 159.69568 152.35297 C 159.71314 152.30293 159.72984 152.2519 159.74632 152.20001 C 159.76281 152.14812 159.77885 152.09496 159.79438 152.04085 C 159.80991 151.98674 159.82526 151.93167 159.83986 151.87497 C 159.85445 151.81826 159.86855 151.75998 159.88223 151.7003 C 159.89591 151.64063 159.90872 151.57936 159.9215 151.51633 C 159.93429 151.45331 159.94679 151.38878 159.95871 151.32203 C 159.98255 151.18854 160.00488 151.04687 160.02537 150.89622 C 160.04586 150.74557 160.06438 150.58592 160.0817 150.41511 C 160.09902 150.24429 160.11492 150.06237 160.12924 149.86837 C 160.14356 149.67438 160.1565 149.46844 160.168 149.24825 C 160.1795 149.02807 160.18964 148.79381 160.19849 148.54442 C 160.20734 148.29504 160.21485 148.0302 160.22123 147.7486 C 160.2276 147.46701 160.23266 147.16884 160.23673 146.85202 C 160.24081 146.5352 160.24408 146.1999 160.24603 145.84484 C 160.24798 145.48979 160.24862 145.1146 160.24862 144.7183 C 160.24862 144.32199 160.24798 143.94733 160.24603 143.59227 C 160.24408 143.23721 160.24081 142.90192 160.23673 142.5851 C 160.23266 142.26827 160.2276 141.96959 160.22123 141.68799 C 160.21485 141.40639 160.20734 141.14208 160.19849 140.89269 C 160.18964 140.64331 160.1795 140.40904 160.168 140.18886 C 160.1565 139.96867 160.14356 139.76222 160.12924 139.56823 C 160.11492 139.37423 160.09902 139.19282 160.0817 139.02201 C 160.06438 138.85119 160.04586 138.69103 160.02537 138.54038 C 160.00488 138.38973 159.98255 138.24858 159.95871 138.11508 C 159.94679 138.04834 159.93429 137.98329 159.9215 137.92026 C 159.90872 137.85724 159.89591 137.79597 159.88223 137.7363 C 159.86855 137.67662 159.85445 137.61885 159.83986 137.56215 C 159.82526 137.50544 159.80991 137.44986 159.79438 137.39575 C 159.77885 137.34164 159.76281 137.28899 159.74632 137.2371 C 159.72984 137.18521 159.71314 137.13419 159.69568 137.08414 C 159.66075 136.98405 159.62355 136.88715 159.58457 136.79217 C 159.5456 136.69718 159.50478 136.60393 159.46158 136.51105 C 159.41839 136.41816 159.37326 136.32579 159.32568 136.23199 C 159.27809 136.1382 159.22797 136.04343 159.17581 135.94571 C 159.13483 135.8697 159.09212 135.79431 159.04766 135.71988 C 159.00319 135.64545 158.9571 135.57166 158.90916 135.49922 C 158.86123 135.42678 158.81121 135.35531 158.75982 135.28528 C 158.70843 135.21526 158.65549 135.14679 158.60066 135.07961 C 158.54582 135.01243 158.48942 134.94664 158.43116 134.88272 C 158.3729 134.81881 158.313 134.75691 158.25132 134.69669 C 158.18965 134.63646 158.12623 134.57813 158.06115 134.52202 C 157.99608 134.46591 157.9291 134.41185 157.86065 134.36027 C 157.79219 134.3087 157.72215 134.25961 157.65033 134.213 C 157.61441 134.18969 157.57804 134.16677 157.54129 134.14478 C 157.50454 134.1228 157.46726 134.10183 157.42967 134.08122 C 157.39208 134.06061 157.3544 134.04046 157.31598 134.02128 C 157.27755 134.00209 157.23845 133.98369 157.19919 133.96598 C 157.15993 133.94828 157.12043 133.93152 157.08033 133.91534 C 157.04024 133.89917 156.99982 133.88342 156.95889 133.86883 C 156.91797 133.85424 156.87662 133.84044 156.83487 133.82749 C 156.79312 133.81454 156.75084 133.80258 156.70826 133.79132 C 156.66569 133.78006 156.62248 133.76983 156.57907 133.76031 C 156.53567 133.75079 156.49204 133.74219 156.44781 133.73447 C 156.40359 133.72675 156.35902 133.71967 156.31397 133.7138 C 156.26893 133.70793 156.22341 133.7033 156.17755 133.69933 C 156.13168 133.69537 156.08522 133.69204 156.03854 133.69003 C 155.99185 133.68802 155.94496 133.68693 155.89746 133.68693 C 155.84996 133.68693 155.80307 133.68802 155.75638 133.69003 C 155.7097 133.69204 155.66324 133.69537 155.61737 133.69933 C 155.57151 133.7033 155.526 133.70793 155.48095 133.7138 C 155.44302 133.71874 155.40564 133.72512 155.36829 133.73137 C 156.61726 133.94059 157.54052 134.87566 158.11748 135.94571 C 158.95199 137.50921 159.19028 138.37744 159.19028 144.7183 C 159.19028 151.05913 158.95199 151.92792 158.11748 153.49141 C 157.54052 154.56147 156.61727 155.49653 155.36829 155.70574 z " />
    <path
       d="m 148.32726,144.71847 c 0,7.4266 0.23842,8.33865 0.92391,10.16273 1.01333,2.69269 3.30823,5.5591 6.64626,5.5591 3.33803,0 5.63292,-2.86641 6.64625,-5.5591 0.68549,-1.82408 0.92392,-2.73613 0.92392,-10.16273 0,-7.42662 -0.23843,-8.33866 -0.92392,-10.16274 -1.01333,-2.69269 -3.30822,-5.5591 -6.64625,-5.5591 -3.33803,0 -5.63293,2.86641 -6.64626,5.5591 -0.68549,1.82408 -0.92391,2.73612 -0.92391,10.16274 z m 3.21881,0 c 0,-6.34086 0.23843,-7.20947 1.07294,-8.77297 0.65568,-1.21604 1.75842,-2.25838 3.27842,-2.25838 1.52,0 2.62274,1.04234 3.27842,2.25838 0.83451,1.5635 1.07294,2.43211 1.07294,8.77297 0,6.34084 -0.23843,7.20946 -1.07294,8.77295 -0.65568,1.21606 -1.75842,2.25838 -3.27842,2.25838 -1.52,0 -2.62274,-1.04232 -3.27842,-2.25838 -0.83451,-1.56349 -1.07294,-2.43211 -1.07294,-8.77295 z"
       style="font-size:35.9777px;font-family:'DIN 1451 Std';-inkscape-font-specification:'DIN 1451 Std';text-align:center;writing-mode:lr-tb;text-anchor:middle;fill:#f700ff;stroke:none;stroke-width:1.69973"
       id="path1361" />
    <path
       id="path1406"
       style="font-size:35.9777px;font-family:'DIN 1451 Std';-inkscape-font-specification:'DIN 1451 Std';text-align:center;writing-mode:lr-tb;text-anchor:middle;fill:#ffffff;stroke:none;stroke-width:1.69973;fill-opacity:1"
       d="M 155.36829 129.02262 C 155.34031 129.02522 155.31189 129.02633 155.28406 129.02933 C 155.18385 129.04016 155.08454 129.05368 154.98641 129.06964 C 154.88827 129.0856 154.791 129.10403 154.69495 129.12493 C 154.5989 129.14584 154.50416 129.16954 154.41021 129.19521 C 154.31627 129.22089 154.22299 129.24868 154.13116 129.27893 C 154.03933 129.30918 153.94904 129.34144 153.85934 129.37608 C 153.76965 129.41073 153.68076 129.44782 153.59321 129.48667 C 153.50566 129.52552 153.41918 129.56627 153.33379 129.60914 C 153.24841 129.65201 153.16431 129.6968 153.0811 129.7435 C 152.99788 129.79021 152.91562 129.83887 152.8346 129.88923 C 152.75358 129.93959 152.67364 129.99199 152.59482 130.04581 C 152.516 130.09963 152.43836 130.15511 152.36176 130.21221 C 152.28516 130.26931 152.20978 130.32771 152.13542 130.38791 C 152.06105 130.4481 151.98739 130.50981 151.91528 130.57291 C 151.84316 130.63601 151.77222 130.70035 151.70237 130.76618 C 151.63252 130.832 151.56375 130.89936 151.49618 130.96772 C 151.4286 131.03608 151.36251 131.10578 151.29722 131.17649 C 151.23194 131.2472 151.16745 131.3191 151.10447 131.39198 C 151.0415 131.46486 150.98013 131.53881 150.91947 131.61367 C 150.85881 131.68853 150.79899 131.7644 150.74067 131.84105 C 150.68235 131.9177 150.62507 131.99481 150.5691 132.07308 C 150.51313 132.15134 150.45838 132.23058 150.40477 132.31027 C 150.35117 132.38996 150.2989 132.47016 150.24768 132.55108 C 150.19645 132.63201 150.14665 132.71354 150.09781 132.79551 C 150.04898 132.87749 150.00109 132.9602 149.95467 133.04304 C 149.90825 133.12588 149.86328 133.20912 149.81928 133.29264 C 149.77528 133.37616 149.73217 133.45977 149.6906 133.54379 C 149.64904 133.62781 149.60879 133.71216 149.56968 133.79648 C 149.53057 133.88081 149.49264 133.96524 149.45599 134.0497 C 149.41935 134.13415 149.38422 134.21852 149.35006 134.30291 C 149.31589 134.38731 149.28302 134.47146 149.25135 134.55561 C 149.20851 134.66962 149.16725 134.78023 149.12785 134.88892 C 149.08845 134.99762 149.05074 135.10438 149.01468 135.21139 C 148.97862 135.31839 148.94415 135.42542 148.91132 135.53436 C 148.8785 135.64331 148.84748 135.7542 148.81779 135.86871 C 148.7881 135.98322 148.75969 136.10157 148.73304 136.22528 C 148.70639 136.34898 148.68131 136.47839 148.65759 136.61492 C 148.63387 136.75144 148.61182 136.89499 148.59093 137.04797 C 148.57004 137.20094 148.55018 137.36326 148.53202 137.53631 C 148.51386 137.70935 148.49743 137.89302 148.48189 138.08976 C 148.46636 138.2865 148.45201 138.49615 148.439 138.72021 C 148.42599 138.94428 148.41393 139.18298 148.40334 139.438 C 148.39276 139.69302 148.38371 139.96438 148.37544 140.25397 C 148.36717 140.54356 148.35978 140.85118 148.35374 141.17898 C 148.34769 141.50678 148.34268 141.85477 148.33875 142.22439 C 148.33482 142.59402 148.33188 142.98547 148.32996 143.40055 C 148.32805 143.81563 148.32738 144.25414 148.32738 144.7183 C 148.32738 145.18246 148.32805 145.62148 148.32996 146.03656 C 148.33188 146.45164 148.33482 146.84309 148.33875 147.21272 C 148.34268 147.58234 148.34769 147.92982 148.35374 148.25762 C 148.35978 148.58541 148.36717 148.89355 148.37544 149.18314 C 148.38371 149.47273 148.39276 149.7441 148.40334 149.99911 C 148.41393 150.25413 148.42599 150.49283 148.439 150.7169 C 148.45201 150.94096 148.46636 151.15009 148.48189 151.34683 C 148.49743 151.54358 148.51386 151.72776 148.53202 151.90081 C 148.55018 152.07385 148.57004 152.23618 148.59093 152.38915 C 148.61182 152.54212 148.63387 152.68567 148.65759 152.8222 C 148.68131 152.95872 148.70639 153.08813 148.73304 153.21184 C 148.75969 153.33554 148.7881 153.45337 148.81779 153.56789 C 148.84748 153.6824 148.8785 153.79329 148.91132 153.90223 C 148.94415 154.01118 148.97862 154.1182 149.01468 154.22521 C 149.05074 154.33222 149.08845 154.4395 149.12785 154.54819 C 149.16725 154.65688 149.20851 154.76698 149.25135 154.88099 C 149.28302 154.96513 149.31589 155.04981 149.35006 155.1342 C 149.38422 155.21859 149.41935 155.30296 149.45599 155.38741 C 149.49264 155.47187 149.53057 155.5563 149.56968 155.64063 C 149.60879 155.72496 149.64904 155.80931 149.6906 155.89333 C 149.73217 155.97735 149.77528 156.06095 149.81928 156.14447 C 149.86328 156.228 149.90825 156.31123 149.95467 156.39407 C 150.00109 156.47691 150.04898 156.55963 150.09781 156.6416 C 150.14665 156.72358 150.19645 156.80511 150.24768 156.88603 C 150.2989 156.96695 150.35117 157.04716 150.40477 157.12684 C 150.45838 157.20653 150.51313 157.28526 150.5691 157.36352 C 150.62507 157.44178 150.68235 157.51941 150.74067 157.59607 C 150.79899 157.67272 150.85881 157.74858 150.91947 157.82344 C 150.98013 157.8983 151.0415 157.97226 151.10447 158.04513 C 151.16745 158.11801 151.23194 158.18991 151.29722 158.26062 C 151.36251 158.33134 151.4286 158.40104 151.49618 158.4694 C 151.56375 158.53776 151.63252 158.60459 151.70237 158.67042 C 151.77222 158.73624 151.84316 158.80059 151.91528 158.86369 C 151.98739 158.92679 152.06105 158.9885 152.13542 159.04869 C 152.20978 159.10888 152.28516 159.16781 152.36176 159.22491 C 152.43836 159.28201 152.516 159.33748 152.59482 159.3913 C 152.67364 159.44513 152.75358 159.49753 152.8346 159.54788 C 152.91562 159.59824 152.99788 159.64639 153.0811 159.69309 C 153.16431 159.7398 153.24841 159.7851 153.33379 159.82797 C 153.41918 159.87084 153.50566 159.91159 153.59321 159.95044 C 153.68076 159.98929 153.76965 160.02587 153.85934 160.06051 C 153.94904 160.09516 154.03933 160.12793 154.13116 160.15818 C 154.22299 160.18843 154.31627 160.21623 154.41021 160.2419 C 154.50416 160.26757 154.5989 160.29075 154.69495 160.31166 C 154.791 160.33257 154.88827 160.35151 154.98641 160.36747 C 155.08454 160.38343 155.18385 160.39644 155.28406 160.40726 C 155.31188 160.41027 155.34031 160.41138 155.36829 160.41398 C 158.41976 160.13036 160.52645 157.42874 161.48523 154.88099 C 162.17072 153.05691 162.40921 152.14489 162.40921 144.7183 C 162.40921 137.29169 162.17072 136.37969 161.48523 134.55561 C 160.52644 132.00785 158.41976 129.30623 155.36829 129.02262 z M 154.83913 133.68693 C 155.02162 133.68693 155.19789 133.70283 155.36829 133.73137 C 155.40564 133.72512 155.44302 133.71874 155.48095 133.7138 C 155.526 133.70793 155.57151 133.7033 155.61737 133.69933 C 155.66324 133.69537 155.7097 133.69204 155.75638 133.69003 C 155.80307 133.68802 155.84996 133.68693 155.89746 133.68693 C 155.94496 133.68693 155.99185 133.68802 156.03854 133.69003 C 156.08522 133.69204 156.13168 133.69537 156.17755 133.69933 C 156.22341 133.7033 156.26893 133.70793 156.31397 133.7138 C 156.35902 133.71967 156.40359 133.72675 156.44781 133.73447 C 156.49204 133.74219 156.53567 133.75079 156.57907 133.76031 C 156.62248 133.76983 156.66569 133.78006 156.70826 133.79132 C 156.75084 133.80258 156.79312 133.81454 156.83487 133.82749 C 156.87662 133.84044 156.91797 133.85424 156.95889 133.86883 C 156.99982 133.88342 157.04024 133.89917 157.08033 133.91534 C 157.12043 133.93152 157.15993 133.94828 157.19919 133.96598 C 157.23845 133.98369 157.27755 134.00209 157.31598 134.02128 C 157.3544 134.04046 157.39208 134.06061 157.42967 134.08122 C 157.46726 134.10183 157.50454 134.1228 157.54129 134.14478 C 157.57804 134.16677 157.61441 134.18969 157.65033 134.213 C 157.72215 134.25961 157.79219 134.3087 157.86065 134.36027 C 157.9291 134.41185 157.99608 134.46591 158.06115 134.52202 C 158.12623 134.57813 158.18965 134.63646 158.25132 134.69669 C 158.313 134.75691 158.3729 134.81881 158.43116 134.88272 C 158.48942 134.94664 158.54582 135.01243 158.60066 135.07961 C 158.65549 135.14679 158.70843 135.21526 158.75982 135.28528 C 158.81121 135.35531 158.86123 135.42678 158.90916 135.49922 C 158.9571 135.57166 159.00319 135.64545 159.04766 135.71988 C 159.09212 135.79431 159.13483 135.8697 159.17581 135.94571 C 159.22797 136.04343 159.27809 136.1382 159.32568 136.23199 C 159.37326 136.32579 159.41839 136.41816 159.46158 136.51105 C 159.50478 136.60393 159.5456 136.69718 159.58457 136.79217 C 159.62355 136.88715 159.66075 136.98405 159.69568 137.08414 C 159.71314 137.13419 159.72984 137.18521 159.74632 137.2371 C 159.76281 137.28899 159.77885 137.34164 159.79438 137.39575 C 159.80991 137.44986 159.82526 137.50544 159.83986 137.56215 C 159.85445 137.61885 159.86855 137.67662 159.88223 137.7363 C 159.89591 137.79597 159.90872 137.85724 159.9215 137.92026 C 159.93429 137.98329 159.94679 138.04834 159.95871 138.11508 C 159.98255 138.24858 160.00488 138.38973 160.02537 138.54038 C 160.04586 138.69103 160.06438 138.85119 160.0817 139.02201 C 160.09902 139.19282 160.11492 139.37423 160.12924 139.56823 C 160.14356 139.76222 160.1565 139.96867 160.168 140.18886 C 160.1795 140.40904 160.18964 140.64331 160.19849 140.89269 C 160.20734 141.14208 160.21485 141.40639 160.22123 141.68799 C 160.2276 141.96959 160.23266 142.26827 160.23673 142.5851 C 160.24081 142.90192 160.24408 143.23721 160.24603 143.59227 C 160.24798 143.94733 160.24862 144.32199 160.24862 144.7183 C 160.24862 145.1146 160.24798 145.48979 160.24603 145.84484 C 160.24408 146.1999 160.24081 146.5352 160.23673 146.85202 C 160.23266 147.16884 160.2276 147.46701 160.22123 147.7486 C 160.21485 148.0302 160.20734 148.29504 160.19849 148.54442 C 160.18964 148.79381 160.1795 149.02807 160.168 149.24825 C 160.1565 149.46844 160.14356 149.67438 160.12924 149.86837 C 160.11492 150.06237 160.09902 150.24429 160.0817 150.41511 C 160.06438 150.58592 160.04586 150.74557 160.02537 150.89622 C 160.00488 151.04687 159.98255 151.18854 159.95871 151.32203 C 159.94679 151.38878 159.93429 151.45331 159.9215 151.51633 C 159.90872 151.57936 159.89591 151.64063 159.88223 151.7003 C 159.86855 151.75998 159.85445 151.81826 159.83986 151.87497 C 159.82526 151.93167 159.80991 151.98674 159.79438 152.04085 C 159.77885 152.09496 159.76281 152.14812 159.74632 152.20001 C 159.72984 152.2519 159.71314 152.30293 159.69568 152.35297 C 159.66075 152.45307 159.62355 152.54945 159.58457 152.64443 C 159.5456 152.73941 159.50478 152.83267 159.46158 152.92555 C 159.41839 153.01843 159.37326 153.11132 159.32568 153.20512 C 159.27809 153.29891 159.22797 153.39369 159.17581 153.49141 C 159.13483 153.56741 159.09212 153.6428 159.04766 153.71723 C 159.00319 153.79167 158.9571 153.86493 158.90916 153.93737 C 158.86123 154.00981 158.81121 154.08129 158.75982 154.15131 C 158.70843 154.22134 158.65549 154.29032 158.60066 154.3575 C 158.54582 154.42468 158.48942 154.48996 158.43116 154.55387 C 158.3729 154.61779 158.313 154.6802 158.25132 154.74043 C 158.18965 154.80065 158.12623 154.85898 158.06115 154.91509 C 157.99608 154.9712 157.9291 155.02527 157.86065 155.07684 C 157.79219 155.12841 157.72215 155.17751 157.65033 155.22412 C 157.61441 155.24742 157.57804 155.26983 157.54129 155.29181 C 157.50454 155.3138 157.46726 155.33528 157.42967 155.35589 C 157.39208 155.3765 157.3544 155.39665 157.31598 155.41584 C 157.27755 155.43502 157.23845 155.45342 157.19919 155.47113 C 157.15993 155.48884 157.12043 155.5056 157.08033 155.52177 C 157.04024 155.53795 156.99982 155.55318 156.95889 155.56777 C 156.91797 155.58236 156.87662 155.59615 156.83487 155.60911 C 156.79312 155.62206 156.75084 155.63454 156.70826 155.6458 C 156.66569 155.65706 156.62248 155.66729 156.57907 155.6768 C 156.53567 155.68632 156.49204 155.69492 156.44781 155.70264 C 156.40359 155.71036 156.35902 155.71693 156.31397 155.72279 C 156.26893 155.72866 156.22341 155.73382 156.17755 155.73778 C 156.13168 155.74175 156.08522 155.74456 156.03854 155.74657 C 155.99185 155.74858 155.94496 155.74967 155.89746 155.74967 C 155.84996 155.74967 155.80307 155.74858 155.75638 155.74657 C 155.7097 155.74456 155.66324 155.74175 155.61737 155.73778 C 155.57151 155.73382 155.526 155.72866 155.48095 155.72279 C 155.44303 155.71785 155.40563 155.712 155.36829 155.70574 C 155.19789 155.73429 155.02161 155.74967 154.83913 155.74967 C 153.31913 155.74967 152.21646 154.70747 151.56077 153.49141 C 150.72627 151.92792 150.48797 151.05913 150.48797 144.7183 C 150.48797 138.37744 150.72627 137.50921 151.56077 135.94571 C 152.21646 134.72967 153.31913 133.68693 154.83913 133.68693 z " />
    <path
       id="path1404"
       style="font-size:35.9777px;font-family:'DIN 1451 Std';-inkscape-font-specification:'DIN 1451 Std';text-align:center;writing-mode:lr-tb;text-anchor:middle;fill:#1dff00;stroke:none;stroke-width:1.69973"
       d="M 154.83913 128.99678 C 151.5011 128.99678 149.20635 131.86292 148.19302 134.55561 C 147.50753 136.37969 147.26905 137.29169 147.26905 144.7183 C 147.26905 152.14489 147.50753 153.05691 148.19302 154.88099 C 149.20635 157.57367 151.5011 160.44034 154.83913 160.44034 C 155.01879 160.44034 155.19471 160.43012 155.36829 160.41398 C 155.34031 160.41138 155.31188 160.41027 155.28406 160.40726 C 155.18385 160.39644 155.08454 160.38343 154.98641 160.36747 C 154.88827 160.35151 154.791 160.33257 154.69495 160.31166 C 154.5989 160.29075 154.50416 160.26757 154.41021 160.2419 C 154.31627 160.21623 154.22299 160.18843 154.13116 160.15818 C 154.03933 160.12793 153.94904 160.09516 153.85934 160.06051 C 153.76965 160.02587 153.68076 159.98929 153.59321 159.95044 C 153.50566 159.91159 153.41918 159.87084 153.33379 159.82797 C 153.24841 159.7851 153.16431 159.7398 153.0811 159.69309 C 152.99788 159.64639 152.91562 159.59824 152.8346 159.54788 C 152.75358 159.49753 152.67364 159.44513 152.59482 159.3913 C 152.516 159.33748 152.43836 159.28201 152.36176 159.22491 C 152.28516 159.16781 152.20978 159.10888 152.13542 159.04869 C 152.06105 158.9885 151.98739 158.92679 151.91528 158.86369 C 151.84316 158.80059 151.77222 158.73624 151.70237 158.67042 C 151.63252 158.60459 151.56375 158.53776 151.49618 158.4694 C 151.4286 158.40104 151.36251 158.33134 151.29722 158.26062 C 151.23194 158.18991 151.16745 158.11801 151.10447 158.04513 C 151.0415 157.97226 150.98013 157.8983 150.91947 157.82344 C 150.85881 157.74858 150.79899 157.67272 150.74067 157.59607 C 150.68235 157.51941 150.62507 157.44178 150.5691 157.36352 C 150.51313 157.28526 150.45838 157.20653 150.40477 157.12684 C 150.35117 157.04716 150.2989 156.96695 150.24768 156.88603 C 150.19645 156.80511 150.14665 156.72358 150.09781 156.6416 C 150.04898 156.55963 150.00109 156.47691 149.95467 156.39407 C 149.90825 156.31123 149.86328 156.228 149.81928 156.14447 C 149.77528 156.06095 149.73217 155.97735 149.6906 155.89333 C 149.64904 155.80931 149.60879 155.72496 149.56968 155.64063 C 149.53057 155.5563 149.49264 155.47187 149.45599 155.38741 C 149.41935 155.30296 149.38422 155.21859 149.35006 155.1342 C 149.31589 155.04981 149.28302 154.96513 149.25135 154.88099 C 149.20851 154.76698 149.16725 154.65688 149.12785 154.54819 C 149.08845 154.4395 149.05074 154.33222 149.01468 154.22521 C 148.97862 154.1182 148.94415 154.01118 148.91132 153.90223 C 148.8785 153.79329 148.84748 153.6824 148.81779 153.56789 C 148.7881 153.45337 148.75969 153.33554 148.73304 153.21184 C 148.70639 153.08813 148.68131 152.95872 148.65759 152.8222 C 148.63387 152.68567 148.61182 152.54212 148.59093 152.38915 C 148.57004 152.23618 148.55018 152.07385 148.53202 151.90081 C 148.51386 151.72776 148.49743 151.54358 148.48189 151.34683 C 148.46636 151.15009 148.45201 150.94096 148.439 150.7169 C 148.42599 150.49283 148.41393 150.25413 148.40334 149.99911 C 148.39276 149.7441 148.38371 149.47273 148.37544 149.18314 C 148.36717 148.89355 148.35978 148.58541 148.35374 148.25762 C 148.34769 147.92982 148.34268 147.58234 148.33875 147.21272 C 148.33482 146.84309 148.33188 146.45164 148.32996 146.03656 C 148.32805 145.62148 148.32738 145.18246 148.32738 144.7183 C 148.32738 144.25414 148.32805 143.81563 148.32996 143.40055 C 148.33188 142.98547 148.33482 142.59402 148.33875 142.22439 C 148.34268 141.85477 148.34769 141.50678 148.35374 141.17898 C 148.35978 140.85118 148.36717 140.54356 148.37544 140.25397 C 148.38371 139.96438 148.39276 139.69302 148.40334 139.438 C 148.41393 139.18298 148.42599 138.94428 148.439 138.72021 C 148.45201 138.49615 148.46636 138.2865 148.48189 138.08976 C 148.49743 137.89302 148.51386 137.70935 148.53202 137.53631 C 148.55018 137.36326 148.57004 137.20094 148.59093 137.04797 C 148.61182 136.89499 148.63387 136.75144 148.65759 136.61492 C 148.68131 136.47839 148.70639 136.34898 148.73304 136.22528 C 148.75969 136.10157 148.7881 135.98322 148.81779 135.86871 C 148.84748 135.7542 148.8785 135.64331 148.91132 135.53436 C 148.94415 135.42542 148.97862 135.31839 149.01468 135.21139 C 149.05074 135.10438 149.08845 134.99762 149.12785 134.88892 C 149.16725 134.78023 149.20851 134.66962 149.25135 134.55561 C 149.28302 134.47146 149.31589 134.38731 149.35006 134.30291 C 149.38422 134.21852 149.41935 134.13415 149.45599 134.0497 C 149.49264 133.96524 149.53057 133.88081 149.56968 133.79648 C 149.60879 133.71216 149.64904 133.62781 149.6906 133.54379 C 149.73217 133.45977 149.77528 133.37616 149.81928 133.29264 C 149.86328 133.20912 149.90825 133.12588 149.95467 133.04304 C 150.00109 132.9602 150.04898 132.87749 150.09781 132.79551 C 150.14665 132.71354 150.19645 132.63201 150.24768 132.55108 C 150.2989 132.47016 150.35117 132.38996 150.40477 132.31027 C 150.45838 132.23058 150.51313 132.15134 150.5691 132.07308 C 150.62507 131.99481 150.68235 131.9177 150.74067 131.84105 C 150.79899 131.7644 150.85881 131.68853 150.91947 131.61367 C 150.98013 131.53881 151.0415 131.46486 151.10447 131.39198 C 151.16745 131.3191 151.23194 131.2472 151.29722 131.17649 C 151.36251 131.10578 151.4286 131.03608 151.49618 130.96772 C 151.56375 130.89936 151.63252 130.832 151.70237 130.76618 C 151.77222 130.70035 151.84316 130.63601 151.91528 130.57291 C 151.98739 130.50981 152.06105 130.4481 152.13542 130.38791 C 152.20978 130.32771 152.28516 130.26931 152.36176 130.21221 C 152.43836 130.15511 152.516 130.09963 152.59482 130.04581 C 152.67364 129.99199 152.75358 129.93959 152.8346 129.88923 C 152.91562 129.83887 152.99788 129.79021 153.0811 129.7435 C 153.16431 129.6968 153.24841 129.65201 153.33379 129.60914 C 153.41918 129.56627 153.50566 129.52552 153.59321 129.48667 C 153.68076 129.44782 153.76965 129.41073 153.85934 129.37608 C 153.94904 129.34144 154.03933 129.30918 154.13116 129.27893 C 154.22299 129.24868 154.31627 129.22089 154.41021 129.19521 C 154.50416 129.16954 154.5989 129.14584 154.69495 129.12493 C 154.791 129.10403 154.88827 129.0856 154.98641 129.06964 C 155.08454 129.05368 155.18385 129.04016 155.28406 129.02933 C 155.31189 129.02633 155.34031 129.02522 155.36829 129.02262 C 155.19471 129.00648 155.01879 128.99678 154.83913 128.99678 z " />
    <path
       id="path1342"
       style="font-size:35.9777px;font-family:'DIN 1451 Std';-inkscape-font-specification:'DIN 1451 Std';text-align:center;writing-mode:lr-tb;text-anchor:middle;fill:#1dff00;stroke:none;stroke-width:1.69973"
       d="M 180.09805 160.17989 L 170.50122 138.20397 L 170.44179 138.20397 L 170.44179 140.49117 L 179.03972 160.17989 L 180.09805 160.17989 z " />
    <path
       id="path1399"
       style="font-size:35.9777px;font-family:'DIN 1451 Std';-inkscape-font-specification:'DIN 1451 Std';text-align:center;writing-mode:lr-tb;text-anchor:middle;fill:#1dff00;stroke:none;stroke-width:1.69973"
       d="M 178.86092 148.94595 L 179.85982 151.23315 L 179.91925 151.23315 L 179.91925 129.25723 L 178.86092 129.25723 L 178.86092 148.94595 z " />
    <path
       d="m 167.2229,160.17972 h 3.21881 v -21.97583 h 0.0597 l 9.59683,21.97583 h 3.04 v -30.92251 h -3.21882 v 21.97582 h -0.0596 l -9.59683,-21.97582 h -3.03999 z"
       style="font-size:35.9777px;font-family:'DIN 1451 Std';-inkscape-font-specification:'DIN 1451 Std';text-align:center;writing-mode:lr-tb;text-anchor:middle;fill:#f700ff;stroke:none;stroke-width:1.69973"
       id="path1363" />
    <path
       id="path1397"
       style="font-size:35.9777px;font-family:'DIN 1451 Std';-inkscape-font-specification:'DIN 1451 Std';text-align:center;writing-mode:lr-tb;text-anchor:middle;fill:#ffffff;stroke:none;stroke-width:1.69973;fill-opacity:1"
       d="M 167.22287 129.25723 L 167.22287 160.17989 L 169.38346 160.17989 L 169.38346 138.20397 L 169.44289 138.20397 L 170.44179 140.49117 L 170.44179 138.20397 L 170.50122 138.20397 L 180.09805 160.17989 L 182.07984 160.17989 L 182.07984 129.25723 L 179.91925 129.25723 L 179.91925 151.23315 L 179.85982 151.23315 L 178.86092 148.94595 L 178.86092 151.23315 L 178.80149 151.23315 L 169.20466 129.25723 L 167.22287 129.25723 z " />
    <path
       id="path1395"
       style="font-size:35.9777px;font-family:'DIN 1451 Std';-inkscape-font-specification:'DIN 1451 Std';text-align:center;writing-mode:lr-tb;text-anchor:middle;fill:#1dff00;stroke:none;stroke-width:1.69973"
       d="M 166.16453 129.25723 L 166.16453 160.17989 L 167.22287 160.17989 L 167.22287 129.25723 L 166.16453 129.25723 z " />
  </g>
</svg>
